<svg width="798" height="403" viewBox="0 0 798 403" fill="none" xmlns="http://www.w3.org/2000/svg">
<path d="M3.22 179.14C1.16667 179.14 0.140001 178.113 0.140001 176.06V7.32C0.140001 5.26666 1.16667 4.24 3.22 4.24H29.18C31.2333 4.24 32.26 5.26666 32.26 7.32V148.34H116.52C118.573 148.34 119.6 149.367 119.6 151.42V176.06C119.6 178.113 118.573 179.14 116.52 179.14H3.22ZM209.883 182.44C197.123 182.44 185.389 180.24 174.683 175.84C163.976 171.587 154.663 165.5 146.743 157.58C138.969 149.66 132.883 140.127 128.483 128.98C124.083 117.833 121.883 105.44 121.883 91.8C121.883 78.0133 124.083 65.5467 128.483 54.4C132.883 43.2533 138.969 33.72 146.743 25.8C154.663 17.88 163.976 11.7933 174.683 7.53999C185.389 3.13999 197.123 0.939986 209.883 0.939986C222.643 0.939986 234.376 3.13999 245.083 7.53999C255.936 11.7933 265.249 17.88 273.023 25.8C280.943 33.72 287.103 43.2533 291.503 54.4C295.903 65.5467 298.103 78.0133 298.103 91.8C298.103 105.44 295.903 117.833 291.503 128.98C287.103 140.127 280.943 149.66 273.023 157.58C265.249 165.5 255.936 171.587 245.083 175.84C234.376 180.24 222.643 182.44 209.883 182.44ZM209.883 150.98C218.243 150.98 225.796 149.513 232.543 146.58C239.436 143.647 245.229 139.613 249.923 134.48C254.616 129.2 258.209 122.967 260.703 115.78C263.343 108.447 264.663 100.453 264.663 91.8C264.663 83.1467 263.343 75.2267 260.703 68.04C258.209 60.7067 254.616 54.4 249.923 49.12C245.229 43.84 239.436 39.7333 232.543 36.8C225.796 33.8667 218.243 32.4 209.883 32.4C201.523 32.4 193.969 33.8667 187.223 36.8C180.476 39.7333 174.683 43.84 169.843 49.12C165.149 54.4 161.483 60.7067 158.843 68.04C156.349 75.2267 155.103 83.1467 155.103 91.8C155.103 100.453 156.349 108.447 158.843 115.78C161.483 122.967 165.149 129.2 169.843 134.48C174.683 139.613 180.476 143.647 187.223 146.58C193.969 149.513 201.523 150.98 209.883 150.98ZM403.45 182.44C390.69 182.44 379.03 180.313 368.47 176.06C358.056 171.807 349.11 165.72 341.63 157.8C334.296 149.88 328.576 140.347 324.47 129.2C320.363 118.053 318.31 105.587 318.31 91.8C318.31 78.0133 320.436 65.5467 324.69 54.4C328.943 43.1067 334.81 33.5 342.29 25.58C349.917 17.66 359.01 11.5733 369.57 7.32C380.13 3.06666 391.643 0.939986 404.11 0.939986C422.443 0.939986 437.99 5.04666 450.75 13.26C463.657 21.3267 473.043 32.84 478.91 47.8C479.057 48.0933 479.13 48.5333 479.13 49.12C479.13 50.5867 478.397 51.54 476.93 51.98L451.41 59.02L450.31 59.24C448.99 59.24 448.11 58.58 447.67 57.26C443.417 49.1933 437.623 43.0333 430.29 38.78C423.103 34.5267 414.523 32.4 404.55 32.4C396.19 32.4 388.71 33.8667 382.11 36.8C375.51 39.5867 369.937 43.5467 365.39 48.68C360.99 53.8133 357.543 60.0467 355.05 67.38C352.703 74.7133 351.53 82.8533 351.53 91.8C351.53 100.747 352.703 108.887 355.05 116.22C357.543 123.407 361.063 129.64 365.61 134.92C370.157 140.053 375.657 144.013 382.11 146.8C388.71 149.587 396.19 150.98 404.55 150.98C415.697 150.98 425.303 148.34 433.37 143.06C441.437 137.78 447.45 129.64 451.41 118.64C451.997 116.733 453.243 116 455.15 116.44L480.45 123.7C482.357 124.14 483.09 125.167 482.65 126.78C480.303 134.993 476.857 142.547 472.31 149.44C467.763 156.187 462.19 162.053 455.59 167.04C448.99 171.88 441.29 175.62 432.49 178.26C423.837 181.047 414.157 182.44 403.45 182.44ZM486.459 179.14C485.285 179.14 484.405 178.847 483.819 178.26C483.379 177.673 483.452 176.793 484.039 175.62L553.779 6.65999C554.365 5.04666 555.539 4.24 557.299 4.24H579.519C581.279 4.24 582.452 5.04666 583.039 6.65999L652.999 175.62C653.145 175.913 653.219 176.353 653.219 176.94C653.219 178.407 652.339 179.14 650.579 179.14H620.439C618.679 179.14 617.505 178.333 616.919 176.72L604.599 144.16H531.999L519.459 176.72C518.872 178.333 517.699 179.14 515.939 179.14H486.459ZM593.159 114.24L568.079 48.02L542.999 114.24H593.159ZM673.773 179.14C671.72 179.14 670.693 178.113 670.693 176.06V7.32C670.693 5.26666 671.72 4.24 673.773 4.24H699.733C701.786 4.24 702.813 5.26666 702.813 7.32V148.34H787.073C789.126 148.34 790.153 149.367 790.153 151.42V176.06C790.153 178.113 789.126 179.14 787.073 179.14H673.773ZM3.22 399.14C1.16667 399.14 0.140001 398.113 0.140001 396.06V227.32C0.140001 225.267 1.16667 224.24 3.22 224.24H29.18C31.2333 224.24 32.26 225.267 32.26 227.32V294.2H113.22V227.32C113.22 225.267 114.247 224.24 116.3 224.24H142.26C144.313 224.24 145.34 225.267 145.34 227.32V396.06C145.34 398.113 144.313 399.14 142.26 399.14H116.3C114.247 399.14 113.22 398.113 113.22 396.06V324.56H32.26V396.06C32.26 398.113 31.2333 399.14 29.18 399.14H3.22ZM259.297 402.44C246.537 402.44 234.803 400.24 224.097 395.84C213.39 391.587 204.077 385.5 196.157 377.58C188.383 369.66 182.297 360.127 177.897 348.98C173.497 337.833 171.297 325.44 171.297 311.8C171.297 298.013 173.497 285.547 177.897 274.4C182.297 263.253 188.383 253.72 196.157 245.8C204.077 237.88 213.39 231.793 224.097 227.54C234.803 223.14 246.537 220.94 259.297 220.94C272.057 220.94 283.79 223.14 294.497 227.54C305.35 231.793 314.663 237.88 322.437 245.8C330.357 253.72 336.517 263.253 340.917 274.4C345.317 285.547 347.517 298.013 347.517 311.8C347.517 325.44 345.317 337.833 340.917 348.98C336.517 360.127 330.357 369.66 322.437 377.58C314.663 385.5 305.35 391.587 294.497 395.84C283.79 400.24 272.057 402.44 259.297 402.44ZM259.297 370.98C267.657 370.98 275.21 369.513 281.957 366.58C288.85 363.647 294.643 359.613 299.337 354.48C304.03 349.2 307.623 342.967 310.117 335.78C312.757 328.447 314.077 320.453 314.077 311.8C314.077 303.147 312.757 295.227 310.117 288.04C307.623 280.707 304.03 274.4 299.337 269.12C294.643 263.84 288.85 259.733 281.957 256.8C275.21 253.867 267.657 252.4 259.297 252.4C250.937 252.4 243.383 253.867 236.637 256.8C229.89 259.733 224.097 263.84 219.257 269.12C214.563 274.4 210.897 280.707 208.257 288.04C205.763 295.227 204.517 303.147 204.517 311.8C204.517 320.453 205.763 328.447 208.257 335.78C210.897 342.967 214.563 349.2 219.257 354.48C224.097 359.613 229.89 363.647 236.637 366.58C243.383 369.513 250.937 370.98 259.297 370.98ZM440.601 402.44C432.094 402.44 423.587 401.12 415.081 398.48C406.574 395.987 398.947 391.88 392.201 386.16C385.601 380.293 380.174 372.593 375.921 363.06C371.814 353.527 369.761 341.793 369.761 327.86V227.32C369.761 225.267 370.787 224.24 372.841 224.24H398.801C400.854 224.24 401.881 225.267 401.881 227.32V322.14C401.881 330.647 402.834 337.98 404.741 344.14C406.794 350.3 409.507 355.36 412.881 359.32C416.401 363.28 420.507 366.213 425.201 368.12C430.041 370.027 435.174 370.98 440.601 370.98C446.027 370.98 451.087 370.027 455.781 368.12C460.474 366.213 464.581 363.28 468.101 359.32C471.621 355.36 474.334 350.3 476.241 344.14C478.294 337.98 479.321 330.647 479.321 322.14V227.32C479.321 225.267 480.347 224.24 482.401 224.24H508.581C510.634 224.24 511.661 225.267 511.661 227.32V327.86C511.661 341.793 509.534 353.527 505.281 363.06C501.174 372.593 495.747 380.293 489.001 386.16C482.254 391.88 474.627 395.987 466.121 398.48C457.761 401.12 449.254 402.44 440.601 402.44ZM595.182 402.44C578.755 402.44 565.042 398.553 554.042 390.78C543.042 383.007 535.195 371.493 530.502 356.24C530.355 355.947 530.282 355.507 530.282 354.92C530.282 353.747 531.015 352.94 532.482 352.5L557.342 346.56C557.635 346.413 558.002 346.34 558.442 346.34C559.762 346.34 560.642 347.073 561.082 348.54C564.308 356.313 568.562 362.033 573.842 365.7C579.122 369.22 586.235 370.98 595.182 370.98C603.688 370.98 610.508 369.587 615.642 366.8C620.922 363.867 623.562 359.1 623.562 352.5C623.562 346.047 620.995 340.913 615.862 337.1C610.875 333.287 603.908 329.767 594.962 326.54L579.562 321.04C565.482 316.2 554.482 309.673 546.562 301.46C538.642 293.1 534.682 282.613 534.682 270C534.682 262.813 536.148 256.213 539.082 250.2C542.162 244.187 546.342 239.053 551.622 234.8C556.902 230.4 563.062 227.027 570.102 224.68C577.288 222.187 585.062 220.94 593.422 220.94C608.088 220.94 620.628 224.387 631.042 231.28C641.455 238.173 648.862 248.953 653.262 263.62C653.408 263.913 653.482 264.353 653.482 264.94C653.482 266.113 652.748 266.92 651.282 267.36L625.102 273.96C624.808 274.107 624.368 274.18 623.782 274.18C622.755 274.18 621.875 273.447 621.142 271.98C618.208 264.793 614.468 259.733 609.922 256.8C605.522 253.867 600.022 252.4 593.422 252.4C585.648 252.4 579.488 253.94 574.942 257.02C570.395 259.953 568.122 263.987 568.122 269.12C568.122 274.547 570.468 279.24 575.162 283.2C579.855 287.013 587.335 290.607 597.602 293.98L609.922 298.16C625.762 303.293 637.568 310.04 645.342 318.4C653.115 326.76 657.002 338.127 657.002 352.5C657.002 359.687 655.462 366.36 652.382 372.52C649.448 378.68 645.268 383.96 639.842 388.36C634.415 392.76 627.888 396.207 620.262 398.7C612.635 401.193 604.275 402.44 595.182 402.44ZM680.863 399.14C678.81 399.14 677.783 398.113 677.783 396.06V227.32C677.783 225.267 678.81 224.24 680.863 224.24H791.303C793.356 224.24 794.383 225.267 794.383 227.32V251.52C794.383 253.573 793.356 254.6 791.303 254.6H709.903V294.2H783.383C785.583 294.2 786.683 295.3 786.683 297.5V321.04C786.683 323.093 785.583 324.12 783.383 324.12H709.903V368.78H794.163C796.216 368.78 797.243 369.88 797.243 372.08V396.06C797.243 398.113 796.216 399.14 794.163 399.14H680.863Z" fill="#F4F4F4"/>
</svg>
