<svg width="457" height="218" viewBox="0 0 457 218" fill="none" xmlns="http://www.w3.org/2000/svg">
<path d="M19.056 53.328C14.2773 53.328 10.288 52.1973 7.088 49.936C3.888 47.6747 1.60533 44.3253 0.24 39.888C0.197333 39.8027 0.176 39.6747 0.176 39.504C0.176 39.1627 0.389333 38.928 0.816 38.8L8.048 37.072C8.13333 37.0293 8.24 37.008 8.368 37.008C8.752 37.008 9.008 37.2213 9.136 37.648C10.0747 39.9093 11.312 41.5733 12.848 42.64C14.384 43.664 16.4533 44.176 19.056 44.176C21.5307 44.176 23.5147 43.7707 25.008 42.96C26.544 42.1067 27.312 40.72 27.312 38.8C27.312 36.9227 26.5653 35.4293 25.072 34.32C23.6213 33.2107 21.5947 32.1867 18.992 31.248L14.512 29.648C10.416 28.24 7.216 26.3413 4.912 23.952C2.608 21.52 1.456 18.4693 1.456 14.8C1.456 12.7093 1.88267 10.7893 2.736 9.04C3.632 7.29066 4.848 5.79733 6.384 4.56C7.92 3.28 9.712 2.29867 11.76 1.616C13.8507 0.890663 16.112 0.527996 18.544 0.527996C22.8107 0.527996 26.4587 1.53066 29.488 3.536C32.5173 5.54133 34.672 8.67733 35.952 12.944C35.9947 13.0293 36.016 13.1573 36.016 13.328C36.016 13.6693 35.8027 13.904 35.376 14.032L27.76 15.952C27.6747 15.9947 27.5467 16.016 27.376 16.016C27.0773 16.016 26.8213 15.8027 26.608 15.376C25.7547 13.2853 24.6667 11.8133 23.344 10.96C22.064 10.1067 20.464 9.68 18.544 9.68C16.2827 9.68 14.4907 10.128 13.168 11.024C11.8453 11.8773 11.184 13.0507 11.184 14.544C11.184 16.1227 11.8667 17.488 13.232 18.64C14.5973 19.7493 16.7733 20.7947 19.76 21.776L23.344 22.992C27.952 24.4853 31.3867 26.448 33.648 28.88C35.9093 31.312 37.04 34.6187 37.04 38.8C37.04 40.8907 36.592 42.832 35.696 44.624C34.8427 46.416 33.6267 47.952 32.048 49.232C30.4693 50.512 28.5707 51.5147 26.352 52.24C24.1333 52.9653 21.7013 53.328 19.056 53.328ZM55.0535 53.072C50.8722 53.072 47.6295 51.8987 45.3255 49.552C43.0642 47.2053 41.9335 43.9627 41.9335 39.824V17.36C41.9335 16.7627 42.2322 16.464 42.8295 16.464H50.0615C50.6588 16.464 50.9575 16.7627 50.9575 17.36V36.176C50.9575 39.1627 51.5122 41.36 52.6215 42.768C53.7308 44.176 55.4588 44.88 57.8055 44.88C58.9148 44.88 59.9815 44.688 61.0055 44.304C62.0295 43.8773 62.9468 43.2587 63.7575 42.448C64.5682 41.5947 65.2082 40.528 65.6775 39.248C66.1468 37.968 66.3815 36.4747 66.3815 34.768V17.36C66.3815 16.7627 66.6802 16.464 67.2775 16.464H74.4455C75.0428 16.464 75.3415 16.7627 75.3415 17.36V51.472C75.3415 52.0693 75.0428 52.368 74.4455 52.368H67.9175C67.6615 52.368 67.4268 52.304 67.2135 52.176C67.0428 52.048 66.9575 51.8133 66.9575 51.472L66.7655 47.376C65.4428 49.296 63.7362 50.7253 61.6455 51.664C59.5548 52.6027 57.3575 53.072 55.0535 53.072ZM83.792 67.472C83.1947 67.472 82.896 67.1733 82.896 66.576V17.36C82.896 16.7627 83.1947 16.464 83.792 16.464H90.32C90.576 16.464 90.7893 16.528 90.96 16.656C91.1733 16.784 91.28 17.0187 91.28 17.36L91.472 21.392C92.752 19.6 94.3947 18.2133 96.4 17.232C98.4053 16.2507 100.667 15.76 103.184 15.76C105.744 15.76 108.048 16.2293 110.096 17.168C112.187 18.064 113.957 19.344 115.408 21.008C116.859 22.6293 117.968 24.592 118.736 26.896C119.547 29.1573 119.952 31.6747 119.952 34.448C119.952 37.1787 119.547 39.696 118.736 42C117.968 44.304 116.859 46.2667 115.408 47.888C113.957 49.5093 112.187 50.768 110.096 51.664C108.048 52.6027 105.744 53.072 103.184 53.072C100.795 53.072 98.64 52.624 96.72 51.728C94.8427 50.8747 93.2213 49.6373 91.856 48.016V66.576C91.856 67.1733 91.5573 67.472 90.96 67.472H83.792ZM100.944 44.88C102.395 44.88 103.717 44.624 104.912 44.112C106.107 43.6 107.131 42.896 107.984 42C108.837 41.0613 109.499 39.952 109.968 38.672C110.437 37.392 110.672 35.984 110.672 34.448C110.672 32.912 110.437 31.504 109.968 30.224C109.499 28.9013 108.837 27.792 107.984 26.896C107.131 25.9573 106.107 25.232 104.912 24.72C103.717 24.208 102.395 23.952 100.944 23.952C99.4933 23.952 98.1707 24.208 96.976 24.72C95.824 25.232 94.8213 25.9573 93.968 26.896C93.1147 27.792 92.4533 28.9013 91.984 30.224C91.5147 31.504 91.28 32.912 91.28 34.448C91.28 35.984 91.5147 37.392 91.984 38.672C92.4533 39.952 93.1147 41.0613 93.968 42C94.8213 42.896 95.824 43.6 96.976 44.112C98.1707 44.624 99.4933 44.88 100.944 44.88ZM141.477 53.072C138.661 53.072 136.123 52.6027 133.861 51.664C131.6 50.768 129.68 49.5093 128.101 47.888C126.565 46.224 125.371 44.2613 124.517 42C123.707 39.696 123.301 37.1787 123.301 34.448C123.301 31.7173 123.707 29.2213 124.517 26.96C125.371 24.656 126.565 22.672 128.101 21.008C129.68 19.344 131.6 18.064 133.861 17.168C136.123 16.2293 138.661 15.76 141.477 15.76C144.251 15.76 146.704 16.2507 148.837 17.232C150.971 18.2133 152.763 19.6 154.214 21.392C155.664 23.184 156.752 25.36 157.478 27.92C158.203 30.4373 158.523 33.232 158.438 36.304C158.352 36.9013 158.032 37.2 157.478 37.2H132.901C133.328 39.6747 134.267 41.616 135.717 43.024C137.168 44.3893 139.109 45.072 141.541 45.072C145.125 45.072 147.749 43.7067 149.413 40.976C149.712 40.592 150.117 40.464 150.629 40.592L156.773 42.704C157.371 42.96 157.541 43.3653 157.285 43.92C155.664 47.0773 153.446 49.3813 150.629 50.832C147.856 52.3253 144.805 53.072 141.477 53.072ZM148.837 30.48C148.411 28.3467 147.536 26.704 146.213 25.552C144.933 24.3573 143.333 23.76 141.413 23.76C139.28 23.76 137.488 24.336 136.037 25.488C134.587 26.64 133.584 28.304 133.029 30.48H148.837ZM164.14 52.368C163.542 52.368 163.244 52.0693 163.244 51.472V17.36C163.244 16.7627 163.542 16.464 164.14 16.464H170.668C170.924 16.464 171.137 16.528 171.308 16.656C171.521 16.784 171.628 17.0187 171.628 17.36L171.82 21.84C173.057 19.92 174.636 18.4693 176.556 17.488C178.518 16.464 180.588 15.952 182.764 15.952C183.276 15.952 183.724 15.9733 184.108 16.016C184.492 16.0587 184.854 16.1227 185.196 16.208C185.708 16.336 185.964 16.656 185.964 17.168V24.272C185.964 24.784 185.708 25.04 185.196 25.04C184.726 25.04 184.193 24.9973 183.596 24.912C183.041 24.8267 182.401 24.784 181.676 24.784C180.481 24.784 179.308 24.9973 178.156 25.424C177.004 25.808 175.98 26.384 175.084 27.152C174.23 27.92 173.526 28.88 172.972 30.032C172.46 31.1413 172.204 32.4 172.204 33.808V51.472C172.204 52.0693 171.905 52.368 171.308 52.368H164.14ZM17.52 134.368C16.9227 134.368 16.624 134.069 16.624 133.472V92.32H0.88C0.325333 92.32 0.0480001 92.0213 0.0480001 91.424V84.384C0.0480001 83.7867 0.325333 83.488 0.88 83.488H41.648C42.2453 83.488 42.544 83.7867 42.544 84.384V91.424C42.544 92.0213 42.2453 92.32 41.648 92.32H26.032V133.472C26.032 134.069 25.712 134.368 25.072 134.368H17.52ZM56.5675 135.072C53.7515 135.072 51.2128 134.603 48.9515 133.664C46.6902 132.768 44.7702 131.509 43.1915 129.888C41.6555 128.224 40.4608 126.261 39.6075 124C38.7968 121.696 38.3915 119.179 38.3915 116.448C38.3915 113.717 38.7968 111.221 39.6075 108.96C40.4608 106.656 41.6555 104.672 43.1915 103.008C44.7702 101.344 46.6902 100.064 48.9515 99.168C51.2128 98.2293 53.7515 97.76 56.5675 97.76C59.3408 97.76 61.7942 98.2507 63.9275 99.232C66.0608 100.213 67.8528 101.6 69.3035 103.392C70.7542 105.184 71.8422 107.36 72.5675 109.92C73.2928 112.437 73.6128 115.232 73.5275 118.304C73.4422 118.901 73.1222 119.2 72.5675 119.2H47.9915C48.4182 121.675 49.3568 123.616 50.8075 125.024C52.2582 126.389 54.1995 127.072 56.6315 127.072C60.2155 127.072 62.8395 125.707 64.5035 122.976C64.8022 122.592 65.2075 122.464 65.7195 122.592L71.8635 124.704C72.4608 124.96 72.6315 125.365 72.3755 125.92C70.7542 129.077 68.5355 131.381 65.7195 132.832C62.9462 134.325 59.8955 135.072 56.5675 135.072ZM63.9275 112.48C63.5008 110.347 62.6262 108.704 61.3035 107.552C60.0235 106.357 58.4235 105.76 56.5035 105.76C54.3702 105.76 52.5782 106.336 51.1275 107.488C49.6768 108.64 48.6742 110.304 48.1195 112.48H63.9275ZM94.6535 135.072C91.8375 135.072 89.2775 134.603 86.9735 133.664C84.7122 132.768 82.7708 131.509 81.1495 129.888C79.5708 128.267 78.3548 126.304 77.5015 124C76.6482 121.696 76.2215 119.179 76.2215 116.448C76.2215 113.675 76.6482 111.157 77.5015 108.896C78.3548 106.592 79.5708 104.629 81.1495 103.008C82.7708 101.344 84.7122 100.064 86.9735 99.168C89.2348 98.2293 91.7735 97.76 94.5895 97.76C98.6428 97.76 102.035 98.6133 104.766 100.32C107.539 101.984 109.587 104.608 110.91 108.192C110.952 108.277 110.974 108.384 110.974 108.512C110.974 108.939 110.739 109.216 110.27 109.344L104.318 111.072L103.998 111.136C103.699 111.136 103.4 110.923 103.102 110.496C101.48 107.467 98.8348 105.952 95.1655 105.952C93.5442 105.952 92.1148 106.229 90.8775 106.784C89.6828 107.339 88.6802 108.107 87.8695 109.088C87.1015 110.027 86.5042 111.136 86.0775 112.416C85.6935 113.696 85.5015 115.04 85.5015 116.448C85.5015 117.856 85.6935 119.2 86.0775 120.48C86.5042 121.717 87.1015 122.827 87.8695 123.808C88.6802 124.747 89.6828 125.493 90.8775 126.048C92.1148 126.603 93.5442 126.88 95.1655 126.88C97.0428 126.88 98.6642 126.496 100.03 125.728C101.395 124.917 102.44 123.701 103.166 122.08C103.55 121.568 103.955 121.397 104.382 121.568L110.974 123.168C111.571 123.296 111.742 123.659 111.486 124.256C110.078 127.968 107.902 130.699 104.958 132.448C102.056 134.197 98.6215 135.072 94.6535 135.072ZM117.372 134.368C116.775 134.368 116.476 134.069 116.476 133.472V83.296C116.476 82.6987 116.775 82.4 117.372 82.4H124.54C125.137 82.4 125.436 82.6987 125.436 83.296V102.88C126.801 101.131 128.487 99.8507 130.492 99.04C132.497 98.1867 134.588 97.76 136.764 97.76C140.945 97.76 144.167 98.9333 146.428 101.28C148.732 103.627 149.884 106.869 149.884 111.008V133.472C149.884 134.069 149.585 134.368 148.988 134.368H141.756C141.159 134.368 140.86 134.069 140.86 133.472V114.656C140.86 111.669 140.305 109.472 139.196 108.064C138.087 106.656 136.359 105.952 134.012 105.952C132.903 105.952 131.836 106.165 130.812 106.592C129.788 106.976 128.871 107.595 128.06 108.448C127.249 109.259 126.609 110.304 126.14 111.584C125.671 112.864 125.436 114.357 125.436 116.064V133.472C125.436 134.069 125.137 134.368 124.54 134.368H117.372ZM178.989 134.368C178.392 134.368 178.093 134.069 178.093 133.472V84.384C178.093 83.7867 178.392 83.488 178.989 83.488H211.117C211.714 83.488 212.013 83.7867 212.013 84.384V91.424C212.013 92.0213 211.714 92.32 211.117 92.32H187.437V103.84H208.813C209.453 103.84 209.773 104.16 209.773 104.8V111.648C209.773 112.245 209.453 112.544 208.813 112.544H187.437V125.536H211.949C212.546 125.536 212.845 125.856 212.845 126.496V133.472C212.845 134.069 212.546 134.368 211.949 134.368H178.989ZM219.174 134.368C218.577 134.368 218.278 134.069 218.278 133.472V99.36C218.278 98.7627 218.577 98.464 219.174 98.464H225.702C225.958 98.464 226.172 98.528 226.342 98.656C226.556 98.784 226.662 99.0187 226.662 99.36L226.854 103.456C228.177 101.536 229.884 100.107 231.974 99.168C234.065 98.2293 236.262 97.76 238.566 97.76C242.748 97.76 245.969 98.9333 248.23 101.28C250.534 103.627 251.686 106.869 251.686 111.008V133.472C251.686 134.069 251.388 134.368 250.79 134.368H243.558C242.961 134.368 242.662 134.069 242.662 133.472V114.656C242.662 111.669 242.108 109.472 240.998 108.064C239.889 106.656 238.161 105.952 235.814 105.952C234.705 105.952 233.638 106.165 232.614 106.592C231.59 106.976 230.673 107.595 229.862 108.448C229.052 109.259 228.412 110.304 227.942 111.584C227.473 112.864 227.238 114.357 227.238 116.064V133.472C227.238 134.069 226.94 134.368 226.342 134.368H219.174ZM274.921 150.176C271.081 150.176 267.604 149.301 264.489 147.552C261.417 145.845 259.177 143.285 257.769 139.872C257.684 139.616 257.641 139.467 257.641 139.424C257.641 139.083 257.854 138.848 258.281 138.72L264.105 136.608C264.276 136.523 264.404 136.48 264.489 136.48C264.788 136.48 265.044 136.672 265.257 137.056C266.11 138.549 267.262 139.744 268.713 140.64C270.206 141.536 272.169 141.984 274.601 141.984C276.009 141.984 277.332 141.813 278.569 141.472C279.806 141.173 280.894 140.683 281.833 140C282.772 139.317 283.518 138.421 284.073 137.312C284.628 136.203 284.905 134.859 284.905 133.28V130.016C283.582 131.637 281.961 132.875 280.041 133.728C278.121 134.624 275.966 135.072 273.577 135.072C271.017 135.072 268.692 134.603 266.601 133.664C264.553 132.768 262.804 131.509 261.353 129.888C259.902 128.267 258.772 126.304 257.961 124C257.193 121.696 256.809 119.179 256.809 116.448C256.809 113.675 257.193 111.157 257.961 108.896C258.772 106.592 259.902 104.629 261.353 103.008C262.804 101.344 264.553 100.064 266.601 99.168C268.692 98.2293 271.017 97.76 273.577 97.76C276.094 97.76 278.356 98.2507 280.361 99.232C282.366 100.213 284.009 101.6 285.289 103.392L285.545 99.36C285.545 98.7627 285.865 98.464 286.505 98.464H292.969C293.609 98.464 293.929 98.7627 293.929 99.36V132.384C293.929 135.243 293.46 137.76 292.521 139.936C291.625 142.155 290.324 144.011 288.617 145.504C286.953 147.04 284.948 148.192 282.601 148.96C280.297 149.771 277.737 150.176 274.921 150.176ZM275.817 126.88C277.268 126.88 278.59 126.624 279.785 126.112C280.98 125.6 282.004 124.896 282.857 124C283.71 123.061 284.372 121.952 284.841 120.672C285.31 119.392 285.545 117.984 285.545 116.448C285.545 114.912 285.31 113.504 284.841 112.224C284.372 110.901 283.71 109.792 282.857 108.896C282.004 107.957 280.98 107.232 279.785 106.72C278.59 106.208 277.268 105.952 275.817 105.952C274.366 105.952 273.044 106.208 271.849 106.72C270.654 107.232 269.63 107.957 268.777 108.896C267.924 109.792 267.262 110.901 266.793 112.224C266.324 113.504 266.089 114.912 266.089 116.448C266.089 117.984 266.324 119.392 266.793 120.672C267.262 121.952 267.924 123.061 268.777 124C269.63 124.896 270.654 125.6 271.849 126.112C273.044 126.624 274.366 126.88 275.817 126.88ZM302.335 134.368C301.737 134.368 301.439 134.069 301.439 133.472V99.36C301.439 98.7627 301.737 98.464 302.335 98.464H309.503C310.1 98.464 310.399 98.7627 310.399 99.36V133.472C310.399 134.069 310.1 134.368 309.503 134.368H302.335ZM305.919 92.064C304.425 92.064 303.167 91.616 302.143 90.72C301.161 89.7813 300.671 88.5653 300.671 87.072C300.671 85.5787 301.161 84.384 302.143 83.488C303.167 82.5493 304.425 82.08 305.919 82.08C307.412 82.08 308.649 82.5493 309.631 83.488C310.655 84.384 311.167 85.5787 311.167 87.072C311.167 88.5653 310.655 89.7813 309.631 90.72C308.649 91.616 307.412 92.064 305.919 92.064ZM318.852 134.368C318.255 134.368 317.956 134.069 317.956 133.472V99.36C317.956 98.7627 318.255 98.464 318.852 98.464H325.38C325.636 98.464 325.849 98.528 326.02 98.656C326.233 98.784 326.34 99.0187 326.34 99.36L326.532 103.456C327.855 101.536 329.561 100.107 331.652 99.168C333.743 98.2293 335.94 97.76 338.244 97.76C342.425 97.76 345.647 98.9333 347.908 101.28C350.212 103.627 351.364 106.869 351.364 111.008V133.472C351.364 134.069 351.065 134.368 350.468 134.368H343.236C342.639 134.368 342.34 134.069 342.34 133.472V114.656C342.34 111.669 341.785 109.472 340.676 108.064C339.567 106.656 337.839 105.952 335.492 105.952C334.383 105.952 333.316 106.165 332.292 106.592C331.268 106.976 330.351 107.595 329.54 108.448C328.729 109.259 328.089 110.304 327.62 111.584C327.151 112.864 326.916 114.357 326.916 116.064V133.472C326.916 134.069 326.617 134.368 326.02 134.368H318.852ZM374.662 135.072C371.846 135.072 369.308 134.603 367.046 133.664C364.785 132.768 362.865 131.509 361.286 129.888C359.75 128.224 358.556 126.261 357.702 124C356.892 121.696 356.486 119.179 356.486 116.448C356.486 113.717 356.892 111.221 357.702 108.96C358.556 106.656 359.75 104.672 361.286 103.008C362.865 101.344 364.785 100.064 367.046 99.168C369.308 98.2293 371.846 97.76 374.662 97.76C377.436 97.76 379.889 98.2507 382.022 99.232C384.156 100.213 385.948 101.6 387.398 103.392C388.849 105.184 389.937 107.36 390.662 109.92C391.388 112.437 391.708 115.232 391.622 118.304C391.537 118.901 391.217 119.2 390.662 119.2H366.086C366.513 121.675 367.452 123.616 368.902 125.024C370.353 126.389 372.294 127.072 374.726 127.072C378.31 127.072 380.934 125.707 382.598 122.976C382.897 122.592 383.302 122.464 383.814 122.592L389.958 124.704C390.556 124.96 390.726 125.365 390.47 125.92C388.849 129.077 386.63 131.381 383.814 132.832C381.041 134.325 377.99 135.072 374.662 135.072ZM382.022 112.48C381.596 110.347 380.721 108.704 379.398 107.552C378.118 106.357 376.518 105.76 374.598 105.76C372.465 105.76 370.673 106.336 369.222 107.488C367.772 108.64 366.769 110.304 366.214 112.48H382.022ZM412.493 135.072C409.677 135.072 407.138 134.603 404.877 133.664C402.615 132.768 400.695 131.509 399.117 129.888C397.581 128.224 396.386 126.261 395.533 124C394.722 121.696 394.317 119.179 394.317 116.448C394.317 113.717 394.722 111.221 395.533 108.96C396.386 106.656 397.581 104.672 399.117 103.008C400.695 101.344 402.615 100.064 404.877 99.168C407.138 98.2293 409.677 97.76 412.493 97.76C415.266 97.76 417.719 98.2507 419.853 99.232C421.986 100.213 423.778 101.6 425.229 103.392C426.679 105.184 427.767 107.36 428.493 109.92C429.218 112.437 429.538 115.232 429.453 118.304C429.367 118.901 429.047 119.2 428.493 119.2H403.917C404.343 121.675 405.282 123.616 406.733 125.024C408.183 126.389 410.125 127.072 412.557 127.072C416.141 127.072 418.765 125.707 420.429 122.976C420.727 122.592 421.133 122.464 421.645 122.592L427.789 124.704C428.386 124.96 428.557 125.365 428.301 125.92C426.679 129.077 424.461 131.381 421.645 132.832C418.871 134.325 415.821 135.072 412.493 135.072ZM419.853 112.48C419.426 110.347 418.551 108.704 417.229 107.552C415.949 106.357 414.349 105.76 412.429 105.76C410.295 105.76 408.503 106.336 407.053 107.488C405.602 108.64 404.599 110.304 404.045 112.48H419.853ZM435.154 134.368C434.557 134.368 434.258 134.069 434.258 133.472V99.36C434.258 98.7627 434.557 98.464 435.154 98.464H441.682C441.938 98.464 442.152 98.528 442.322 98.656C442.536 98.784 442.642 99.0187 442.642 99.36L442.834 103.84C444.072 101.92 445.65 100.469 447.57 99.488C449.533 98.464 451.602 97.952 453.778 97.952C454.29 97.952 454.738 97.9733 455.122 98.016C455.506 98.0587 455.869 98.1227 456.21 98.208C456.722 98.336 456.978 98.656 456.978 99.168V106.272C456.978 106.784 456.722 107.04 456.21 107.04C455.741 107.04 455.208 106.997 454.61 106.912C454.056 106.827 453.416 106.784 452.69 106.784C451.496 106.784 450.322 106.997 449.17 107.424C448.018 107.808 446.994 108.384 446.098 109.152C445.245 109.92 444.541 110.88 443.986 112.032C443.474 113.141 443.218 114.4 443.218 115.808V133.472C443.218 134.069 442.92 134.368 442.322 134.368H435.154ZM4.464 216.368C3.86667 216.368 3.568 216.069 3.568 215.472V166.384C3.568 165.787 3.86667 165.488 4.464 165.488H12.016C12.6133 165.488 12.912 165.787 12.912 166.384V185.84H36.464V166.384C36.464 165.787 36.7627 165.488 37.36 165.488H44.912C45.5093 165.488 45.808 165.787 45.808 166.384V215.472C45.808 216.069 45.5093 216.368 44.912 216.368H37.36C36.7627 216.368 36.464 216.069 36.464 215.472V194.672H12.912V215.472C12.912 216.069 12.6133 216.368 12.016 216.368H4.464ZM71.087 217.072C68.2283 217.072 65.6257 216.603 63.279 215.664C60.9323 214.768 58.927 213.509 57.263 211.888C55.599 210.224 54.319 208.261 53.423 206C52.527 203.696 52.079 201.179 52.079 198.448C52.079 195.717 52.527 193.221 53.423 190.96C54.319 188.656 55.599 186.672 57.263 185.008C58.927 183.344 60.9323 182.064 63.279 181.168C65.6257 180.229 68.2283 179.76 71.087 179.76C73.9883 179.76 76.591 180.229 78.895 181.168C81.2417 182.064 83.247 183.344 84.911 185.008C86.575 186.672 87.855 188.656 88.751 190.96C89.647 193.221 90.095 195.717 90.095 198.448C90.095 201.179 89.647 203.696 88.751 206C87.855 208.261 86.575 210.224 84.911 211.888C83.247 213.509 81.2417 214.768 78.895 215.664C76.591 216.603 73.9883 217.072 71.087 217.072ZM71.087 208.88C72.5377 208.88 73.8603 208.624 75.055 208.112C76.2497 207.6 77.2737 206.896 78.127 206C78.9803 205.061 79.6417 203.952 80.111 202.672C80.5803 201.392 80.815 199.984 80.815 198.448C80.815 196.912 80.5803 195.504 80.111 194.224C79.6417 192.901 78.9803 191.792 78.127 190.896C77.2737 189.957 76.2497 189.232 75.055 188.72C73.8603 188.208 72.5377 187.952 71.087 187.952C69.6363 187.952 68.3137 188.208 67.119 188.72C65.9243 189.232 64.9003 189.957 64.047 190.896C63.1937 191.792 62.5323 192.901 62.063 194.224C61.5937 195.504 61.359 196.912 61.359 198.448C61.359 199.984 61.5937 201.392 62.063 202.672C62.5323 203.952 63.1937 205.061 64.047 206C64.9003 206.896 65.9243 207.6 67.119 208.112C68.3137 208.624 69.6363 208.88 71.087 208.88ZM108.321 217.072C104.14 217.072 100.897 215.899 98.593 213.552C96.3317 211.205 95.201 207.963 95.201 203.824V181.36C95.201 180.763 95.4997 180.464 96.097 180.464H103.329C103.926 180.464 104.225 180.763 104.225 181.36V200.176C104.225 203.163 104.78 205.36 105.889 206.768C106.998 208.176 108.726 208.88 111.073 208.88C112.182 208.88 113.249 208.688 114.273 208.304C115.297 207.877 116.214 207.259 117.025 206.448C117.836 205.595 118.476 204.528 118.945 203.248C119.414 201.968 119.649 200.475 119.649 198.768V181.36C119.649 180.763 119.948 180.464 120.545 180.464H127.713C128.31 180.464 128.609 180.763 128.609 181.36V215.472C128.609 216.069 128.31 216.368 127.713 216.368H121.185C120.929 216.368 120.694 216.304 120.481 216.176C120.31 216.048 120.225 215.813 120.225 215.472L120.033 211.376C118.71 213.296 117.004 214.725 114.913 215.664C112.822 216.603 110.625 217.072 108.321 217.072ZM149.028 217.072C145.102 217.072 141.796 216.261 139.108 214.64C136.462 213.019 134.564 210.629 133.412 207.472C133.369 207.387 133.348 207.28 133.348 207.152C133.348 206.768 133.582 206.512 134.052 206.384L140.388 204.656L140.644 204.592C141.07 204.592 141.348 204.805 141.476 205.232C142.329 206.683 143.353 207.685 144.548 208.24C145.785 208.795 147.172 209.072 148.708 209.072C150.201 209.072 151.438 208.901 152.42 208.56C153.444 208.176 153.956 207.472 153.956 206.448C153.956 205.68 153.55 205.061 152.74 204.592C151.929 204.08 150.564 203.547 148.644 202.992L146.916 202.48C142.606 201.243 139.534 199.6 137.7 197.552C135.865 195.461 134.948 193.051 134.948 190.32C134.948 188.784 135.268 187.376 135.908 186.096C136.59 184.773 137.529 183.664 138.724 182.768C139.961 181.829 141.412 181.104 143.076 180.592C144.74 180.037 146.596 179.76 148.644 179.76C152.1 179.76 155.022 180.507 157.412 182C159.801 183.451 161.55 185.712 162.66 188.784C162.745 188.955 162.788 189.104 162.788 189.232C162.788 189.573 162.574 189.787 162.148 189.872L155.812 191.92C155.726 191.963 155.598 191.984 155.428 191.984C155.129 191.984 154.873 191.792 154.66 191.408C154.02 190.299 153.209 189.424 152.228 188.784C151.246 188.101 149.988 187.76 148.452 187.76C147.3 187.76 146.297 187.952 145.444 188.336C144.633 188.72 144.228 189.381 144.228 190.32C144.228 191.173 144.654 191.877 145.508 192.432C146.361 192.944 147.79 193.435 149.796 193.904L151.46 194.352C153.678 194.907 155.534 195.568 157.028 196.336C158.521 197.061 159.716 197.915 160.612 198.896C161.55 199.877 162.212 200.987 162.596 202.224C163.022 203.419 163.236 204.763 163.236 206.256C163.236 207.92 162.873 209.413 162.148 210.736C161.465 212.059 160.484 213.189 159.204 214.128C157.966 215.067 156.473 215.792 154.724 216.304C152.974 216.816 151.076 217.072 149.028 217.072ZM184.245 217.072C181.429 217.072 178.89 216.603 176.629 215.664C174.368 214.768 172.448 213.509 170.869 211.888C169.333 210.224 168.138 208.261 167.285 206C166.474 203.696 166.069 201.179 166.069 198.448C166.069 195.717 166.474 193.221 167.285 190.96C168.138 188.656 169.333 186.672 170.869 185.008C172.448 183.344 174.368 182.064 176.629 181.168C178.89 180.229 181.429 179.76 184.245 179.76C187.018 179.76 189.472 180.251 191.605 181.232C193.738 182.213 195.53 183.6 196.981 185.392C198.432 187.184 199.52 189.36 200.245 191.92C200.97 194.437 201.29 197.232 201.205 200.304C201.12 200.901 200.8 201.2 200.245 201.2H175.669C176.096 203.675 177.034 205.616 178.485 207.024C179.936 208.389 181.877 209.072 184.309 209.072C187.893 209.072 190.517 207.707 192.181 204.976C192.48 204.592 192.885 204.464 193.397 204.592L199.541 206.704C200.138 206.96 200.309 207.365 200.053 207.92C198.432 211.077 196.213 213.381 193.397 214.832C190.624 216.325 187.573 217.072 184.245 217.072ZM191.605 194.48C191.178 192.347 190.304 190.704 188.981 189.552C187.701 188.357 186.101 187.76 184.181 187.76C182.048 187.76 180.256 188.336 178.805 189.488C177.354 190.64 176.352 192.304 175.797 194.48H191.605Z" fill="black"/>
</svg>
